<?xml version="1.0" standalone="no"?><!-- Generator: Gravit.io --><svg xmlns="http://www.w3.org/2000/svg" xmlns:xlink="http://www.w3.org/1999/xlink" style="isolation:isolate" viewBox="89 55 95 95" width="95" height="95"><rect x="90.25" y="73.75" width="92.5" height="55" transform="matrix(1,0,0,1,0,0)" fill="rgb(255,255,255)" stroke-width="2.5" stroke="rgba(0,0,0,0)" stroke-linejoin="miter" stroke-linecap="butt"/><path d=" M 181.5 75 L 181.5 127.5 L 91.5 127.5 L 91.5 75 L 181.5 75 Z  M 184 72.5 L 89 72.5 L 89 130 L 184 130 L 184 72.5 L 184 72.5 Z " fill-rule="evenodd" fill="rgb(120,139,156)" stroke-width="2.5" stroke="rgba(0,0,0,0)" stroke-linejoin="miter" stroke-linecap="butt"/><rect x="89" y="55" width="95" height="20" transform="matrix(1,0,0,1,0,0)" fill="rgb(120,139,156)" stroke-width="2.5" stroke="rgba(0,0,0,0)" stroke-linejoin="miter" stroke-linecap="butt"/><rect x="124" y="60" width="55" height="10" transform="matrix(1,0,0,1,0,0)" fill="rgb(255,255,255)" stroke-width="2.5" stroke="rgba(0,0,0,0)" stroke-linejoin="miter" stroke-linecap="butt"/><circle vector-effect="non-scaling-stroke" cx="0" cy="0" r="1" fill="rgb(200,209,219)" transform="matrix(5,0,0,5,114,65)" stroke-width="2.5" stroke="rgba(0,0,0,0)"/><circle vector-effect="non-scaling-stroke" cx="0" cy="0" r="1" fill="rgb(200,209,219)" transform="matrix(5,0,0,5,99,65)" stroke-width="2.5" stroke="rgba(0,0,0,0)"/><rect x="129" y="127.5" width="20" height="2.5" transform="matrix(1,0,0,1,0,0)" fill="rgb(200,209,219)" stroke-width="2.5" stroke="rgba(0,0,0,0)" stroke-linejoin="miter" stroke-linecap="butt"/><path d=" M 90.25 148.75 L 90.25 141.25 L 129 141.25 C 132.4475 141.25 135.25 138.4475 135.25 135 L 135.25 111.25 L 124.255 111.25 L 139 94.4 L 153.745 111.25 L 142.75 111.25 L 142.75 135 C 142.75 142.57999999999998 136.57999999999998 148.75 129 148.75 L 90.25 148.75 Z " fill="rgb(139,183,240)" stroke-width="2.5" stroke="rgba(0,0,0,0)" stroke-linejoin="miter" stroke-linecap="butt"/><path d=" M 139 96.2975 L 150.99 110 L 144 110 L 141.5 110 L 141.5 112.5 L 141.5 135 C 141.5 141.89249999999998 135.8925 147.5 129 147.5 L 91.5 147.5 L 91.5 142.5 L 129 142.5 C 133.135 142.5 136.5 139.135 136.5 135 L 136.5 112.5 L 136.5 110 L 134 110 L 127.01 110 L 139 96.2975 Z  M 139 92.5 L 121.5 112.5 L 134 112.5 L 134 135 C 134 137.7625 131.7625 140 129 140 L 89 140 L 89 150 L 129 150 C 137.285 150 144 143.285 144 135 L 144 112.5 L 156.5 112.5 L 139 92.5 L 139 92.5 Z " fill-rule="evenodd" fill="rgb(78,122,181)" stroke-width="2.5" stroke="rgba(0,0,0,0)" stroke-linejoin="miter" stroke-linecap="butt"/></svg>