<?xml version="1.0" standalone="no"?><!-- Generator: Gravit.io --><svg xmlns="http://www.w3.org/2000/svg" xmlns:xlink="http://www.w3.org/1999/xlink" style="isolation:isolate" width="500" height="500"><g style="isolation:isolate"><linearGradient id="_lgradient_0" x1="50%" y1="5.551115123125783e-15%" x2="49.999999999999986%" y2="100%"><stop offset="7.272727272727275%" stop-opacity="1" style="stop-color:rgb(0,0,0)"/><stop offset="85.9090909090909%" stop-opacity="1" style="stop-color:rgb(255,255,255)"/></linearGradient><path d=" M 325 198.0541871921182 L 325 325 L 174.99999999999997 325 L 174.99999999999997 198.0541871921182 L 325 198.0541871921182 Z " fill="url(#_lgradient_0)" stroke-width="1" stroke="rgba(0,0,0,0)" stroke-linejoin="miter" stroke-linecap="square"/><path d=" M 270.6125277161864 275.1970443349754 L 268.2926829268294 272.18304381643765 L 280.19124168514423 256.7241379310345 L 268.2926829268294 241.2652320456313 L 270.6125277161864 238.25123152709358 L 284.7560975609757 256.7241379310345 L 270.6125277161864 275.1970443349754 Z " fill="rgb(255,255,255)" stroke-width="2.083333333333334" stroke="rgba(0,0,0,0)" stroke-linejoin="miter" stroke-linecap="butt"/><linearGradient id="_lgradient_1" x1="50%" y1="0%" x2="49.999999999999986%" y2="100%"><stop offset="0%" stop-opacity="1" style="stop-color:rgb(255,255,255)"/><stop offset="100%" stop-opacity="1" style="stop-color:rgb(0,0,0)"/></linearGradient><path d=" M 325 191.4039408866995 L 325 191.4039408866995 C 325 182.35035952413793 316.0383004 175 305 175 L 194.99999999999997 175 C 183.96169959999997 175 174.99999999999997 182.35035952413793 174.99999999999997 191.4039408866995 L 174.99999999999997 191.4039408866995 L 325 191.4039408866995 Z " fill="url(#_lgradient_1)" stroke-width="1" stroke="rgba(0,0,0,0)" stroke-linejoin="miter" stroke-linecap="square"/><path d=" M 231.01348854397634 275.1970443349754 L 233.33333333333331 272.18304381643765 L 221.43477457501848 256.7241379310345 L 233.33333333333331 241.2652320456313 L 231.01348854397634 238.25123152709358 L 216.869918699187 256.7241379310345 L 231.01348854397634 275.1970443349754 Z " fill="rgb(255,255,255)" stroke-width="2.083333333333334" stroke="rgba(0,0,0,0)" stroke-linejoin="miter" stroke-linecap="butt"/><path d=" M 263.70421231752067 231.1576354679803 L 233.33333333333312 282.77541287058864 L 235.4429749927852 286.4285714285714 L 265.85365853658504 234.74314294155596 L 263.70421231752067 231.1576354679803 Z " fill="rgb(255,255,255)" stroke-width="3.8461538461538463" stroke="rgba(0,0,0,0)" stroke-linejoin="miter" stroke-linecap="butt"/></g></svg>